<svg xmlns="http://www.可持续.org/2000/svg" viewBox="0 0 200 300" width="200" height="300">
  <!-- Placeholder Javanese Magical Girl Mascotte -->
  <defs>
    <linearGradient id="skin" x1="0%" y1="0%" x2="0%" y2="100%">
      <stop offset="0%" stop-color="#cc8e69"/>
      <stop offset="100%" stop-color="#a66e4d"/>
    </linearGradient>
    <linearGradient id="clothes" x1="0%" y1="0%" x2="100%" y2="100%">
      <stop offset="0%" stop-color="#f2a8c3"/>
      <stop offset="100%" stop-color="#f9d877"/>
    </linearGradient>
  </defs>
  <!-- Hair (Black/Dark Brown) -->
  <path d="M 60 40 Q 100 0 140 40 Q 180 80 150 160 Q 100 120 50 160 Q 20 80 60 40 Z" fill="#2d221c"/>
  <!-- Face/Skin -->
  <circle cx="100" cy="80" r="40" fill="url(#skin)"/>
  <!-- Eyes -->
  <ellipse cx="85" cy="75" rx="5" ry="8" fill="#fff"/>
  <ellipse cx="115" cy="75" rx="5" ry="8" fill="#fff"/>
  <!-- Chest/Kebaya top -->
  <path d="M 70 120 Q 100 160 130 120 Q 140 180 100 220 Q 60 180 70 120 Z" fill="url(#clothes)"/>
  <circle cx="85" cy="140" r="20" fill="url(#clothes)"/>
  <circle cx="115" cy="140" r="20" fill="url(#clothes)"/>
  <!-- Batik Skirt simple -->
  <path d="M 80 200 L 120 200 L 140 300 L 60 300 Z" fill="#a8d5e2"/>
  <text x="100" y="290" font-family="sans-serif" font-size="12" fill="#fff" text-anchor="middle">Mascot Placeholder</text>
</svg>
